<svg xmlns="http://www.w3.org/2000/svg" viewBox="0 0 549.41 478.07"><defs><style>.cls-1{fill:#f8991f;}</style></defs><title>joker-aws</title><g id="Layer_2" data-name="Layer 2"><g id="Layer_1-2" data-name="Layer 1"><path d="M156.27,200.5c-1.06-31.48-37.2,45.23-90.22,8.4,67.5-13.26,7.57-12.31-16.51-25.66C41.31,176.88.66,142.86,16.83,136,32.58,140.3-6.93,111.48,1.09,85.41c-3.34-23.74,17.73-29.6,33.76-37.69-3.91-5.49-2.74-5.7,3.5-5.78,9.84-1,17.35-8.71,27.46-5C99.36,37.64,125.8,56.1,151,76c15.87,15.8,46,11,58.41,27.88-3.42,7.3,14.25,6.88,18.84,3-3.49,7.34-1.75,11.21,6.49,11,4.65,1.06,3.61,6,.23,8.1-7.77,9.53,18.25,18.71-6.28,15.48,24,71.18-21.33-15.73-9.82,41.86-13.22-9.44-23.51-11.77-35.49,2.72C164.36,185.3,168.54,194.4,156.27,200.5Zm-34.89-58.93c25.27.07,81.36-23.55,29.65-33.64-12.95,16.14-40.44,28.24-55.48,5.21-2.22-3-3.61-8.47-7.34-9.68C44.67,106.46,100.77,144.39,121.38,141.57Zm-6.46-29.85c-3-3.82-5.31-4.11-7.1-.27C108.8,115.88,111.7,114.79,114.92,111.72Z"/><path d="M453,.58c4,3.29,8,.36,12,.43,7.46,14.88,7.1-2,20.78,18.64.26,21.48-.86,4.58,11.57,16.52-.79,6.41-19.47,24.51-6.85,14.06-1.52,5.51-13.28,19.49-7.55,22.14,4.65,13.22-39.79,35.21-11.13,35.1,2.73,6.63-13.91,10.08-7.78,15.48-5.67,4.08-12,5.82-15.21,11.6-3.23,7.12-12.21,1.48-16.84,7.13-5.09-1.88-9.28,4.81-14.58,1.5-3.13-2.11-2.86,1.82-5.28,2-3-1.12-6-.13-7.4,2.11-4.33,7.37-5.44,12.91.66,17.3C324.9,148.45,351,201,336.19,158.42c-6.65-16.09-20,23.89-18.68,3,5-30.86-34.11-19.16-29.17-47.48-.29-1.32-3.4-2-5.46-3.11-1.63-11.75,27,1.89,8.86-24,6.26-3.32,16.6,1.72,21.78-4.71C367,64.84,392.81-7.18,453,.58Zm-76.43,99.75C399.66,106.37,455,60,410,60c-6.34.23-5.69,20.32-21.56,24.59-12.49,4.94-22.22-.32-33.1-5.4C319,92.93,358.36,99.88,376.61,100.33Zm.11-31c-3.17,2.62-4.34,4.75-.51,6.31C380.24,74.25,380.2,72.66,376.72,69.3Z"/><path d="M309.45,368.5l-3-2.28-7.87,5.18v-2.64c-.23-.1-.49-.31-.65-.25-4.08,1.61-8.14,3.28-12.23,4.87a3.81,3.81,0,0,1-2.17.24,7.16,7.16,0,0,1-2.37-1.37c-3.93-3.22-7.4-7.11-13.09-7.37-1.2-.05-2.65-1.39-3.4-2.52-1.14-1.7-2.08-2.88-4.46-3.08-1.22-.11-2.26-2.33-3.37-3.59l.34-1.55c-1.87.53-3.7,1.22-5.6,1.56a25,25,0,0,1-6,.51c-3.31-.2-6.8-.22-9.83-1.34-2-.75-3.69-3.07-5-5-2.94-4.31-5-9.44-8.51-13.1-3.07-3.17-1.52-6.3-2.08-9.43-2.45-7.74-.78-14.81-3.73-23.07,15-.78,40.12,14.09,54.58,24.17,5.81,4.69,12.6,8.23,19.69,7.9a66.25,66.25,0,0,0,21.69-4.24c16.81-6.86,24.86-23.77,38-35.3,1.88-1.93,4.34-3.29,6.41-5.06a9.68,9.68,0,0,0,3.83-8.1c0-.78.84-1.59,1.3-2.39.69.64,1.81,1.18,2,1.93,1.09,4.86,2,9.91-.34,14.53-2.68,5.28-6,10.21-9,15.33-3.83,6.73-6.69,14.66-12.18,20.21-4.58,3.28-5,9.13-8.33,13.07s-6.86,7.29-10.38,10.86c-.69.7-2.18,1-2.4,1.73-1.35,4.58-5.13,5.95-9,7.41C311.26,366.65,310.52,367.62,309.45,368.5Z"/><path d="M215.4,299.68c-3.44-10.59-12.12-14.91-13.53-.82-10.94-10.7,4.19-23,14.44-26.21C210.58,281.43,215.7,293.43,215.4,299.68Z"/><path class="cls-1" d="M326.27,458.11c-86.15,28.34-175.48,27.18-264-7.83a63.26,63.26,0,0,1-6.53-2.86c-2.05-1.09-3.64-2.69-2.81-5.35s2.92-3.57,5.57-3.32c1.1.1,2.2.3,3.29.5,66.89,12.38,133.6,11.11,200.16-2.8,88.1-18.42,165.53-58.06,233.17-117.14.48-.42.95-.85,1.43-1.26,4.54-3.85,9.11-4.32,12.41-1.29,3,2.78,2.89,6.56-.62,11.55-17.52,25-38.9,46.25-62.82,65.06C410.63,420.84,372.16,441.91,326.27,458.11Z"/><path class="cls-1" d="M493.86,298.24c-11.09,4.38-21.89,9.34-32.56,14.6a14.18,14.18,0,0,1-4,1.55c-2.57.39-3.92-.88-3.63-3.55.28-2.49,1.84-4.35,3.35-6.17,14.77-17.74,34.26-27.72,56-33.88a75,75,0,0,1,18.71-3.12c7.52-.18,9.69,1.16,12.34,8.43,3.79,10.37,5.07,21.21,5.25,32.16.27,16.62-2.07,32.79-9.56,47.89a46.9,46.9,0,0,1-3.34,5.74c-1.09,1.59-2.55,3-4.74,2.36s-2.28-2.72-2.2-4.68c.26-6,.58-12,.72-18,.25-11.22.26-22.43-1.54-33.56-.08-.47-.11-.94-.2-1.41-2.34-12.62-6.55-15.55-19.13-12.8C504.15,295,499,296.75,493.86,298.24Z"/></g></g></svg>